# xmcd
#
# Track frame offsets: 
#        150
#        14483
#        28631
#        43113
#        58061
#        72757
#        89590
#        107554
#        122992
#        146153
#        160885
#        174283
#        190942
#        212062
#
# Disc length: 2955 seconds
#
# Revision: 2
# Processed by: cddbd v1.5.2PL0 Copyright (c) Steve Scherf et al.
# Submitted via: ExactAudioCopyFreeDBPlugin 1.0
#
DISCID=ca0b890e
DTITLE=Eva Eastwood - Ton Of Heart
DYEAR=2006
DGENRE=Country
TTITLE0=Come On In
TTITLE1=Like That No More
TTITLE2=Pusher
TTITLE3=I'll Be Gone
TTITLE4=7th Heaven On 5th Floor
TTITLE5=Your Ton Of Heart
TTITLE6=Hudson River
TTITLE7=No One But Me
TTITLE8=Johannestown
TTITLE9=Homeward Bound Bus
TTITLE10=Between Us
TTITLE11=That Much
TTITLE12=Waste It
TTITLE13=The Riverflow
EXTD=Sådär
EXTT0=
EXTT1=
EXTT2=
EXTT3=
EXTT4=
EXTT5=
EXTT6=
EXTT7=
EXTT8=
EXTT9=
EXTT10=
EXTT11=
EXTT12=
EXTT13=
PLAYORDER=
